<svg width="256" height="256" viewBox="0 0 256 256" fill="none" xmlns="http://www.w3.org/2000/svg">
  <rect width="256" height="256" rx="28" fill="#fff"/>
  <g filter="url(#a)">
    <path d="M54 132c0-28 24-50 64-50h20c40 0 64 22 64 50 0 20-12 34-31 40-3 17-19 30-39 30s-36-13-39-30c-19-6-31-20-31-40z" fill="#EBC334"/>
    <path d="M118 92c-7 0-12 5-12 12v4c0 3 2 5 5 5s5-2 5-5v-4c0-2 1-3 3-3 3 0 5-2 5-5s-3-4-6-4zM146 92c-7 0-12 5-12 12v4c0 3 2 5 5 5s5-2 5-5v-4c0-2 1-3 3-3 3 0 5-2 5-5s-3-4-6-4z" fill="#0F7A36" opacity=".7"/>
  </g>
  <defs>
    <filter id="a" x="34" y="62" width="188" height="170" color-interpolation-filters="sRGB" filterUnits="userSpaceOnUse">
      <feFlood flood-opacity="0" result="BackgroundImageFix"/>
      <feColorMatrix in="SourceAlpha" values="0 0 0 0 0 0 0 0 0 0 0 0 0 0 0 0 0 0 127 0"/>
      <feOffset dy="4"/>
      <feGaussianBlur stdDeviation="8"/>
      <feColorMatrix values="0 0 0 0 0 0 0 0 0 0 0 0 0 0 0 0 0 0 0.2 0"/>
      <feBlend in2="BackgroundImageFix" result="effect1_dropShadow"/>
      <feBlend in="SourceGraphic" in2="effect1_dropShadow" result="shape"/>
    </filter>
  </defs>
</svg>
