<?xml version="1.0" encoding="UTF-8"?>
<svg version="1.1" xmlns="http://www.w3.org/2000/svg" width="500" height="500">
<path d="M0 0 C2.04523547 0.76320455 4.10269027 1.46397768 6.17431641 2.15185547 C21.6157745 7.40948364 35.40392989 15.59593843 48.09228516 25.78076172 C49.71625503 27.03209974 51.34118305 28.28219576 52.96728516 29.53076172 C54.34416726 30.61170195 55.71932204 31.69484809 57.09228516 32.78076172 C58.02621094 33.50972656 58.02621094 33.50972656 58.97900391 34.25341797 C60.38973017 35.3813413 61.7480345 36.57438293 63.09228516 37.78076172 C63.09228516 38.44076172 63.09228516 39.10076172 63.09228516 39.78076172 C63.75228516 39.78076172 64.41228516 39.78076172 65.09228516 39.78076172 C69.76455874 44.17429171 73.59033851 49.60466823 77.52978516 54.65576172 C77.97902344 55.22705811 78.42826172 55.79835449 78.89111328 56.38696289 C82.09228516 60.54414365 82.09228516 60.54414365 82.09228516 62.78076172 C82.75228516 62.78076172 83.41228516 62.78076172 84.09228516 62.78076172 C85.80166317 65.33423968 87.37252632 67.87301361 88.90478516 70.53076172 C89.35257324 71.30049316 89.80036133 72.07022461 90.26171875 72.86328125 C99.09228516 88.3047264 99.09228516 88.3047264 99.09228516 94.78076172 C94.47228516 94.78076172 89.85228516 94.78076172 85.09228516 94.78076172 C84.59599609 93.82556641 84.09970703 92.87037109 83.58837891 91.88623047 C77.01444145 79.33020558 70.15919037 66.56609956 59.85400391 56.62060547 C58.09228516 54.78076172 58.09228516 54.78076172 58.09228516 52.78076172 C57.43228516 52.78076172 56.77228516 52.78076172 56.09228516 52.78076172 C55.45291016 51.97638672 54.81353516 51.17201172 54.15478516 50.34326172 C50.18984704 45.38122378 45.06282923 41.67964239 40.09228516 37.78076172 C39.42068359 37.24322266 38.74908203 36.70568359 38.05712891 36.15185547 C7.57809992 12.40280316 -32.21628194 3.22657505 -70.22827148 7.60327148 C-95.33563415 10.8709225 -120.9942194 19.70957337 -140.90771484 35.78076172 C-141.56771484 35.78076172 -142.22771484 35.78076172 -142.90771484 35.78076172 C-142.90771484 36.44076172 -142.90771484 37.10076172 -142.90771484 37.78076172 C-144.41162109 39.07763672 -144.41162109 39.07763672 -146.47021484 40.53076172 C-165.29595493 54.25233988 -178.91106302 73.98890896 -188.90771484 94.78076172 C-191.0324406 94.83462801 -193.15755137 94.87349243 -195.28271484 94.90576172 C-196.46607422 94.92896484 -197.64943359 94.95216797 -198.86865234 94.97607422 C-201.90771484 94.78076172 -201.90771484 94.78076172 -203.90771484 92.78076172 C-195.71088402 76.01262556 -186.68099556 60.93246748 -174.45849609 46.76123047 C-172.94612096 44.99409076 -171.46887831 43.19408687 -170.07568359 41.33154297 C-167.02251323 37.73925423 -163.51190394 34.80726159 -159.90771484 31.78076172 C-159.25512695 31.22727051 -158.60253906 30.6737793 -157.93017578 30.10351562 C-115.4476817 -5.45317235 -52.85968652 -19.92912413 0 0 Z " fill="#272725" transform="translate(301.90771484375,94.21923828125)"/>
<path d="M0 0 C4.90548345 -0.87921894 9.12752464 -1.17415277 14 0 C17.49960691 3.65108244 19.62293032 7.70889615 21.96435547 12.15771484 C24.63160448 16.90242513 28.43490597 20.91890552 32 25 C32.42539063 25.49242187 32.85078125 25.98484375 33.2890625 26.4921875 C39.6203645 33.7861436 46.26298053 40.1633011 54 46 C54.79921875 46.60328125 55.5984375 47.2065625 56.421875 47.828125 C88.91653169 71.40267986 128.21213915 79.44153649 167.8125 75.4375 C177.82581409 73.8050194 187.46477514 70.38329645 197 67 C198.16547363 66.58790283 198.16547363 66.58790283 199.35449219 66.16748047 C215.07948787 60.47563227 229.31622789 51.88912749 242 41 C242.84949219 40.33742188 243.69898438 39.67484375 244.57421875 38.9921875 C246.66297837 37.27678105 248.30430847 35.64839327 250 33.5625 C252.51881873 30.53606219 255.21458829 27.78541171 258 25 C263.8849597 18.63832569 269.16281571 11.62385784 273.1875 3.9375 C275 1 275 1 276.75390625 0.3203125 C279.446678 -0.06370017 282.03044349 -0.09487567 284.75 -0.0625 C285.73484375 -0.05347656 286.7196875 -0.04445313 287.734375 -0.03515625 C288.85585938 -0.01775391 288.85585938 -0.01775391 290 0 C289.46549306 10.1556319 280.87343743 19.22864494 275 27 C274.12794922 28.18335938 274.12794922 28.18335938 273.23828125 29.390625 C252.77513189 56.20134563 224.13271289 74.7114413 191.97265625 84.12890625 C190.13730128 84.66673037 188.30934722 85.23165421 186.49609375 85.83984375 C173.33505903 90.19794586 159.53528498 90.37815926 145.8125 90.3125 C144.9998468 90.31034485 144.1871936 90.3081897 143.34991455 90.30596924 C123.7593515 90.22269936 106.48272203 87.61434347 88 81 C87.34725098 80.77473633 86.69450195 80.54947266 86.02197266 80.31738281 C71.23160835 75.17056683 56.92327664 67.16713512 45 57 C44.16984375 56.3503125 43.3396875 55.700625 42.484375 55.03125 C26.30311802 42.27117307 12.83477624 26.99489876 2.625 9.0625 C2.04347168 8.04192505 2.04347168 8.04192505 1.45019531 7.00073242 C0.56258929 5.37045699 -0.2291543 3.68862054 -1 2 C-0.67 1.34 -0.34 0.68 0 0 Z " fill="#272725" transform="translate(105,323)"/>
<path d="M0 0 C3.826118 4.15407097 7.04615614 9.46331642 7.32421875 15.19140625 C7.27910156 15.91199219 7.23398437 16.63257813 7.1875 17.375 C8.1775 17.313125 9.1675 17.25125 10.1875 17.1875 C14.62801183 17.17849288 18.16333574 18.63148901 22.1875 20.375 C22.93 20.6225 23.6725 20.87 24.4375 21.125 C28.00733351 23.67488108 29.71358122 27.44182052 30.73046875 31.58984375 C31.68125115 38.13346377 30.71345456 42.97046554 27.125 48.625 C23.25259989 52.92255977 17.72957026 54.21936305 12.125 54.5625 C11.1659375 54.4696875 11.1659375 54.4696875 10.1875 54.375 C8.06703208 57.90911321 7.65550711 61.31893835 7.1875 65.375 C6.5275 65.375 5.8675 65.375 5.1875 65.375 C3.8603739 61.3936217 4.11834087 57.52454773 4.1875 53.375 C3.1975 53.87 3.1975 53.87 2.1875 54.375 C-0.1454866 54.41522391 -2.47956666 54.41820247 -4.8125 54.375 C-3.5 52.875 -3.5 52.875 -1.8125 51.375 C-0.8225 51.375 0.1675 51.375 1.1875 51.375 C1.1875 50.715 1.1875 50.055 1.1875 49.375 C1.950625 48.653125 2.71375 47.93125 3.5 47.1875 C6.5830691 43.96103234 7.64811431 41.50703526 9.1875 37.375 C9.8475 37.705 10.5075 38.035 11.1875 38.375 C11.3125 46.125 11.3125 46.125 10.1875 48.375 C16.86863907 46.97194538 16.86863907 46.97194538 22.3125 43.1875 C23.76719449 38.51169629 23.74024706 34.45938138 22.48828125 29.73828125 C21.38279076 27.1961293 21.38279076 27.1961293 18.8671875 26.23046875 C13.14883499 24.868577 8.06789327 24.04214755 2.1875 24.375 C2.084375 23.735625 1.98125 23.09625 1.875 22.4375 C1.28737487 19.81989716 0.60984921 17.30903175 -0.1875 14.75 C-0.42210937 13.99460938 -0.65671875 13.23921875 -0.8984375 12.4609375 C-1.88441781 10.21087988 -3.06628004 9.06268745 -4.8125 7.375 C-4.8125 6.715 -4.8125 6.055 -4.8125 5.375 C-14.89251632 1.09862944 -22.24632186 1.42859876 -32.8125 3.375 C-32.8125 4.035 -32.8125 4.695 -32.8125 5.375 C-34.46252828 6.72886936 -36.1299387 8.06178142 -37.8125 9.375 C-38.1425 10.035 -38.4725 10.695 -38.8125 11.375 C-39.4725 11.375 -40.1325 11.375 -40.8125 11.375 C-42.14474178 22.71715287 -42.14474178 22.71715287 -38.8125 33.375 C-39.8025 33.375 -40.7925 33.375 -41.8125 33.375 C-44.47004275 29.91214127 -46.36173295 26.48550664 -47.8125 22.375 C-49.11108939 22.94275536 -50.40120441 23.52991663 -51.6875 24.125 C-52.76644531 24.61226562 -52.76644531 24.61226562 -53.8671875 25.109375 C-56.213956 26.63618824 -56.85870602 27.76538094 -57.8125 30.375 C-58.34135519 35.13469669 -58.56211486 37.22559054 -55.9375 41.25 C-52.26070586 43.75022002 -49.38207103 44.24519687 -45.01953125 44.72265625 C-42.8125 45.375 -42.8125 45.375 -41.55078125 47.10546875 C-40.72336531 49.64900665 -40.39792393 51.95963016 -40.1875 54.625 C-40.11273438 55.51703125 -40.03796875 56.4090625 -39.9609375 57.328125 C-39.91195312 58.00359375 -39.86296875 58.6790625 -39.8125 59.375 C-39.20664063 59.3028125 -38.60078125 59.230625 -37.9765625 59.15625 C-25.43354104 57.76686916 -12.14243655 56.92530537 -1.140625 64.05859375 C-0.70234375 64.49300781 -0.2640625 64.92742187 0.1875 65.375 C0.1875 66.365 0.1875 67.355 0.1875 68.375 C-0.91207031 68.1584375 -2.01164062 67.941875 -3.14453125 67.71875 C-17.00483103 65.07143589 -32.03449421 62.77726683 -44.8125 70.375 C-44.8125 73.675 -44.8125 76.975 -44.8125 80.375 C-44.049375 79.570625 -43.28625 78.76625 -42.5 77.9375 C-38.39041504 74.01905853 -34.70530166 73.97175713 -29.2578125 74.02734375 C-26.8125 74.375 -26.8125 74.375 -23.8125 76.5625 C-17.20121652 85.85961739 -17.52648234 99.46649771 -19.30859375 110.42578125 C-21.21489223 117.35092204 -24.22776207 123.35890442 -29.9375 127.8125 C-34.45267917 130.26640173 -37.72387999 130.4710117 -42.8125 130.375 C-41.8125 127.375 -41.8125 127.375 -39.875 125.625 C-33.73124474 118.92272153 -34.56594366 106.46420194 -34.6484375 97.87109375 C-34.96820113 93.00611852 -35.61498329 87.77003343 -37.8125 83.375 C-39.1325 83.375 -40.4525 83.375 -41.8125 83.375 C-44.46008961 87.9422881 -45.1665264 91.1602654 -45.0703125 96.41796875 C-45.06369598 97.06824539 -45.05707947 97.71852203 -45.05026245 98.38850403 C-45.02703819 100.44700518 -44.9833484 102.5043895 -44.9375 104.5625 C-44.89125174 107.28512869 -44.85496423 110.00764204 -44.8203125 112.73046875 C-44.79598145 113.93340576 -44.77165039 115.13634277 -44.74658203 116.37573242 C-44.8125 119.375 -44.8125 119.375 -45.8125 122.375 C-48.27619532 123.60684766 -50.0019501 123.54232342 -52.75 123.5625 C-54.06291016 123.58376953 -54.06291016 123.58376953 -55.40234375 123.60546875 C-57.8125 123.375 -57.8125 123.375 -60.8125 121.375 C-61.21122742 118.70480347 -61.21122742 118.70480347 -61.24487305 115.27294922 C-61.26466721 113.99177216 -61.28446136 112.71059509 -61.30485535 111.39059448 C-61.31162566 109.98696031 -61.31807246 108.58332454 -61.32421875 107.1796875 C-61.34105841 105.74763436 -61.35920768 104.31559607 -61.37861633 102.88357544 C-61.42620058 99.11233153 -61.455955 95.34114779 -61.48205566 91.56970215 C-61.51181904 87.72212842 -61.55836371 83.87476222 -61.60351562 80.02734375 C-61.68964436 72.47666528 -61.75694659 64.92597187 -61.8125 57.375 C-63.4625 57.045 -65.1125 56.715 -66.8125 56.375 C-65.80632318 53.69923308 -65.27035454 52.5964892 -62.6484375 51.328125 C-61.43027344 50.98007813 -61.43027344 50.98007813 -60.1875 50.625 C-59.37023437 50.38265625 -58.55296875 50.1403125 -57.7109375 49.890625 C-57.08445313 49.72046875 -56.45796875 49.5503125 -55.8125 49.375 C-56.740625 48.83875 -57.66875 48.3025 -58.625 47.75 C-62.26570214 45.03731997 -63.40614714 43.6721893 -64.8125 39.375 C-65.48147518 33.140523 -65.54973864 27.65868221 -61.8125 22.375 C-58.71977784 19.18855898 -55.81584751 18.0275604 -51.6875 16.6875 C-47.98313507 15.34775286 -47.98313507 15.34775286 -45.67578125 12.33203125 C-45.22368234 10.77189803 -44.80836699 9.20065411 -44.4296875 7.62109375 C-43.25088058 3.33113184 -40.5820514 0.47480087 -36.8515625 -1.84375 C-24.55357248 -8.2441909 -11.76970526 -6.80027415 0 0 Z " fill="#040202" transform="translate(248.8125,148.625)"/>
<path d="M0 0 C2.59518699 3.97928672 2.79814904 7.25062724 1.875 11.875 C0.25 14.4375 0.25 14.4375 -2.125 15.875 C-5.25 16.3125 -5.25 16.3125 -8.125 15.875 C-10.37021098 12.50718353 -10.83331461 9.93760032 -11.5625 6.03125 C-12.07066991 3.60255954 -12.07066991 3.60255954 -14.125 0.875 C-19.8737039 2.28500435 -19.8737039 2.28500435 -25.125 4.875 C-25.82032114 6.19361698 -26.48399753 7.5291404 -27.125 8.875 C-27.785 9.98875 -28.445 11.1025 -29.125 12.25 C-34.64010663 23.40414825 -34.30692771 38.26870698 -30.8125 50 C-29.47783295 53.42564544 -28.2447957 55.76702994 -25.125 57.875 C-21.0392159 59.3324034 -17.47381125 59.875 -13.125 59.875 C-13.125 52.945 -13.125 46.015 -13.125 38.875 C-15.435 38.545 -17.745 38.215 -20.125 37.875 C-20.50718767 36.21885343 -20.83895102 34.55042976 -21.125 32.875 C-20.125 31.875 -20.125 31.875 -17.44116211 31.76147461 C-16.27335205 31.76671143 -15.10554199 31.77194824 -13.90234375 31.77734375 C-12.64228516 31.78056641 -11.38222656 31.78378906 -10.08398438 31.78710938 C-8.74348891 31.79546597 -7.40299412 31.80393093 -6.0625 31.8125 C-4.71810058 31.8175134 -3.3736994 31.82207658 -2.02929688 31.82617188 C1.27217941 31.83800512 4.57356803 31.85449029 7.875 31.875 C8.37 34.35 8.37 34.35 8.875 36.875 C5.74150268 37.91949911 4.88531744 37.80923645 1.875 36.875 C1.89071045 37.79724365 1.9064209 38.7194873 1.92260742 39.66967773 C1.97410193 43.13067381 2.0115261 46.5912557 2.03979492 50.05249023 C2.05477042 51.54311598 2.07515819 53.03369851 2.10131836 54.52416992 C2.2610591 63.86743704 2.35544849 72.16706447 -2.6875 80.4375 C-3.161875 80.911875 -3.63625 81.38625 -4.125 81.875 C-4.785 81.875 -5.445 81.875 -6.125 81.875 C-6.62 83.36 -6.62 83.36 -7.125 84.875 C-14.39364371 90.65511827 -24.4460359 89.23371723 -33.125 88.875 C-33.62 90.36 -33.62 90.36 -34.125 91.875 C-34.9279248 91.90940186 -35.73084961 91.94380371 -36.55810547 91.97924805 C-59.00172324 93.00840584 -80.42998559 95.71248917 -102.125 101.875 C-102.455 100.885 -102.785 99.895 -103.125 98.875 C-81.66514897 90.80244571 -62.0617528 86.875 -39.125 86.875 C-39.351875 85.946875 -39.57875 85.01875 -39.8125 84.0625 C-40.125 80.875 -40.125 80.875 -38.6875 79 C-38.171875 78.62875 -37.65625 78.2575 -37.125 77.875 C-34.53088299 78.94842773 -33.31422998 79.56862765 -31.8125 82 C-30.16424599 84.24924767 -30.16424599 84.24924767 -26.75 84.25 C-22.17419979 83.80547825 -22.17419979 83.80547825 -18.125 81.875 C-14.51600153 76.82240214 -13.17127607 71.94615455 -12.125 65.875 C-13.08986328 66.03548828 -13.08986328 66.03548828 -14.07421875 66.19921875 C-22.99668352 67.38294089 -32.39937417 66.6970413 -40.125 61.625 C-48.14343026 54.83408252 -50.70669436 45.99257922 -52.125 35.875 C-52.55597674 24.65654481 -49.56910563 13.45956749 -42.125 4.875 C-41.465 4.875 -40.805 4.875 -40.125 4.875 C-40.125 4.215 -40.125 3.555 -40.125 2.875 C-28.47447425 -6.14476187 -12.58305356 -8.55647642 0 0 Z " fill="#050303" transform="translate(174.125,206.125)"/>
<path d="M0 0 C2.4375 0.9375 2.4375 0.9375 3.59375 3.171875 C5.52514485 9.50255813 4.13798922 16.07574337 1.4375 22 C-5.35580386 34.20853752 -14.78273176 40.90673449 -27.875 45.1875 C-48.77845502 50.58194001 -71.14948471 49.26945853 -92.5625 48.9375 C-93.61566406 48.92348145 -94.66882813 48.90946289 -95.75390625 48.89501953 C-124.8739 48.4039487 -154.14356732 44.8915349 -183.06640625 41.6484375 C-185.23176486 41.41140377 -187.39713013 41.17443084 -189.5625 40.9375 C-190.23884491 40.86023682 -190.91518982 40.78297363 -191.61203003 40.70336914 C-206.54928249 39.00776806 -221.48018277 38.22928237 -236.5 37.6875 C-237.71084259 37.64291656 -238.92168518 37.59833313 -240.16921997 37.55239868 C-263.47641476 36.72431025 -286.74115926 36.40362048 -309.5625 41.9375 C-310.33803223 42.1221582 -311.11356445 42.30681641 -311.91259766 42.49707031 C-323.20956465 45.14198357 -323.20956465 45.14198357 -334 49.3125 C-337.6484242 50.9766935 -338.06590636 51.12096246 -341.5625 49.9375 C-340.53063825 46.88851494 -339.59835055 45.9599002 -336.82421875 44.2265625 C-310.02830555 31.75108816 -282.35473536 29.70750659 -253.1875 29.6875 C-252.28444122 29.68682526 -251.38138245 29.68615051 -250.45095825 29.68545532 C-219.13683496 29.72194442 -188.11594249 32.89714963 -157.00268555 36.16186523 C-132.56003662 38.71722485 -108.14212475 40.23647113 -83.56884766 40.85839844 C-81.08006825 40.923882 -78.5933057 41.00857025 -76.10546875 41.1015625 C-55.13184882 41.58472442 -30.85245468 40.43886169 -14.5625 25.9375 C-8.65532725 20.15339335 -7.30375361 12.14110031 -6.171875 4.1953125 C-5.23406634 0.72061117 -3.49108465 -0.08514841 0 0 Z " fill="#040302" transform="translate(401.5625,273.0625)"/>
<path d="M0 0 C1.97362387 0.03141265 3.94753157 0.04414306 5.92138672 0.05273438 C30.95842092 0.90247614 55.7645429 12.32577599 76.33154297 26.03710938 C76.33154297 26.69710937 76.33154297 27.35710937 76.33154297 28.03710938 C77.05341797 28.28460938 77.77529297 28.53210938 78.51904297 28.78710938 C81.60760878 30.15980529 83.84165714 31.76064234 86.33154297 34.03710938 C86.33154297 34.69710937 86.33154297 35.35710937 86.33154297 36.03710938 C86.89357422 36.27429688 87.45560547 36.51148438 88.03466797 36.75585938 C101.89163255 44.48559472 113.92337566 63.8623614 120.33154297 78.03710938 C120.33154297 79.02710938 120.33154297 80.01710938 120.33154297 81.03710938 C118.01513672 81.28320312 118.01513672 81.28320312 115.33154297 81.03710938 C113.74169922 79.38476562 113.74169922 79.38476562 112.39404297 77.09960938 C111.88744141 76.27460938 111.38083984 75.44960937 110.85888672 74.59960938 C110.10285156 73.33117187 110.10285156 73.33117187 109.33154297 72.03710938 C105.52798155 66.06748709 101.41154418 60.53733555 96.87060547 55.10351562 C95.33154297 53.03710938 95.33154297 53.03710938 95.33154297 51.03710938 C94.67154297 51.03710938 94.01154297 51.03710938 93.33154297 51.03710938 C92.02685547 49.63867187 92.02685547 49.63867187 90.45654297 47.66210938 C82.83356604 38.72646214 73.35502127 32.02276096 63.33154297 26.03710938 C62.43306641 25.46347656 61.53458984 24.88984375 60.60888672 24.29882812 C30.21285489 5.44241773 -7.03497761 2.86827779 -41.27392578 10.88085938 C-61.38219033 16.15217844 -78.86220185 25.59270842 -94.66845703 39.03710938 C-95.23822266 39.48570312 -95.80798828 39.93429688 -96.39501953 40.39648438 C-99.88327758 43.15131381 -102.62405687 46.21769089 -105.37158203 49.68164062 C-105.79955078 50.12894531 -106.22751953 50.57625 -106.66845703 51.03710938 C-107.32845703 51.03710938 -107.98845703 51.03710938 -108.66845703 51.03710938 C-109.00103516 51.80667969 -109.00103516 51.80667969 -109.34033203 52.59179688 C-111.20810425 56.03069514 -113.56563999 59.04198428 -115.91845703 62.16210938 C-119.80230655 67.34352058 -123.29666442 72.49741155 -126.25439453 78.27929688 C-127.66845703 80.03710938 -127.66845703 80.03710938 -130.33251953 80.79492188 C-131.48880859 80.91480469 -131.48880859 80.91480469 -132.66845703 81.03710938 C-133.66845703 78.03710938 -133.66845703 78.03710938 -132.33251953 75.10351562 C-131.66612874 73.92790965 -130.98541371 72.7603514 -130.29345703 71.59960938 C-129.74806274 70.66906738 -129.74806274 70.66906738 -129.19165039 69.71972656 C-123.13412479 59.59240193 -115.75169155 50.60655349 -107.66845703 42.03710938 C-107.06517578 41.39257812 -106.46189453 40.74804688 -105.84033203 40.08398438 C-104.49671995 38.68819318 -103.08940635 37.35408679 -101.66845703 36.03710938 C-101.00845703 36.03710938 -100.34845703 36.03710938 -99.66845703 36.03710938 C-99.66845703 35.37710938 -99.66845703 34.71710938 -99.66845703 34.03710938 C-97.54051228 32.24853512 -95.4169486 30.60058239 -93.16845703 28.97460938 C-92.49137695 28.48436279 -91.81429687 27.99411621 -91.11669922 27.48901367 C-74.18532829 15.45728981 -55.57656944 6.64452076 -35.13330078 2.72851562 C-31.82967619 2.22752552 -31.82967619 2.22752552 -29.66845703 1.03710938 C-19.89230926 -0.42390164 -9.85763515 -0.1592081 0 0 Z " fill="#090604" transform="translate(256.66845703125,107.962890625)"/>
<path d="M0 0 C3.65812857 1.2712265 5.16229387 3.67580438 7.2890625 6.73828125 C10.85191079 11.62080417 14.56484796 16.2316776 18.6640625 20.67578125 C19.13279785 21.18858643 19.6015332 21.7013916 20.08447266 22.22973633 C22.58606703 24.94414753 22.58606703 24.94414753 25.6640625 26.92578125 C25.6640625 27.58578125 25.6640625 28.24578125 25.6640625 28.92578125 C26.24542969 29.19261719 26.82679688 29.45945312 27.42578125 29.734375 C29.71780024 30.95438511 31.48535223 32.32697564 33.4765625 33.98828125 C61.98921193 56.46130543 98.73137225 65.34065303 134.56005859 61.62548828 C140.3633831 60.78512493 146.00862266 59.45926205 151.6640625 57.92578125 C152.47842773 57.71147461 153.29279297 57.49716797 154.13183594 57.27636719 C165.35709535 54.25570396 174.87125999 50.19180523 184.6640625 43.92578125 C185.90545444 43.15756709 187.14766119 42.39066828 188.390625 41.625 C194.55151371 37.78841369 200.22378835 33.74784243 205.6640625 28.92578125 C206.3240625 28.92578125 206.9840625 28.92578125 207.6640625 28.92578125 C207.6640625 28.26578125 207.6640625 27.60578125 207.6640625 26.92578125 C209.37890625 25.26953125 209.37890625 25.26953125 211.6015625 23.42578125 C214.58451429 21.03651126 214.58451429 21.03651126 216.6640625 17.92578125 C217.3240625 17.92578125 217.9840625 17.92578125 218.6640625 17.92578125 C219.01017578 17.14267578 219.01017578 17.14267578 219.36328125 16.34375 C221.11352506 13.09029379 223.26207875 10.18331634 225.4765625 7.23828125 C225.90259766 6.64466797 226.32863281 6.05105469 226.76757812 5.43945312 C228.83977376 2.69011036 230.15773192 1.08615428 233.48828125 0.03125 C234.56529297 -0.02095703 234.56529297 -0.02095703 235.6640625 -0.07421875 C235.6640625 11.26867914 222.90800598 21.57487612 215.46191406 29.12841797 C199.66025919 44.92578125 199.66025919 44.92578125 193.6640625 44.92578125 C193.6640625 45.58578125 193.6640625 46.24578125 193.6640625 46.92578125 C178.15065511 55.47049768 163.00909765 62.08986001 145.6640625 65.92578125 C144.725625 66.14105469 143.7871875 66.35632813 142.8203125 66.578125 C126.287711 70.1619326 109.26321741 69.71004121 92.6640625 66.92578125 C91.49875 66.75433594 90.3334375 66.58289063 89.1328125 66.40625 C60.19724754 61.53123634 35.38537405 46.05674204 14.6640625 25.92578125 C13.88289063 25.19101562 13.10171875 24.45625 12.296875 23.69921875 C10.6640625 21.92578125 10.6640625 21.92578125 10.6640625 19.92578125 C10.0040625 19.92578125 9.3440625 19.92578125 8.6640625 19.92578125 C7.13568938 18.12891015 5.69061522 16.2607322 4.2890625 14.36328125 C3.8856665 13.81768555 3.48227051 13.27208984 3.06665039 12.70996094 C0.29232305 8.91179481 -2.15934875 5.08969016 -4.3359375 0.92578125 C-2.3359375 -0.07421875 -2.3359375 -0.07421875 0 0 Z " fill="#070403" transform="translate(133.3359375,323.07421875)"/>
<path d="M0 0 C4.90548345 -0.87921894 9.12752464 -1.17415277 14 0 C17.49960691 3.65108244 19.62293032 7.70889615 21.96435547 12.15771484 C24.63160448 16.90242513 28.43490597 20.91890552 32 25 C32.42539063 25.49242187 32.85078125 25.98484375 33.2890625 26.4921875 C39.6203645 33.7861436 46.26298053 40.1633011 54 46 C54.79921875 46.60328125 55.5984375 47.2065625 56.421875 47.828125 C88.91653169 71.40267986 128.21213915 79.44153649 167.8125 75.4375 C177.82581409 73.8050194 187.46477514 70.38329645 197 67 C198.16547363 66.58790283 198.16547363 66.58790283 199.35449219 66.16748047 C215.07948787 60.47563227 229.31622789 51.88912749 242 41 C242.84949219 40.33742188 243.69898438 39.67484375 244.57421875 38.9921875 C246.66297837 37.27678105 248.30430847 35.64839327 250 33.5625 C252.51881873 30.53606219 255.21458829 27.78541171 258 25 C263.8849597 18.63832569 269.16281571 11.62385784 273.1875 3.9375 C275 1 275 1 276.75390625 0.3203125 C279.446678 -0.06370017 282.03044349 -0.09487567 284.75 -0.0625 C285.73484375 -0.05347656 286.7196875 -0.04445313 287.734375 -0.03515625 C288.85585938 -0.01775391 288.85585938 -0.01775391 290 0 C289.46549306 10.1556319 280.87343743 19.22864494 275 27 C274.12794922 28.18335938 274.12794922 28.18335938 273.23828125 29.390625 C252.77513189 56.20134563 224.13271289 74.7114413 191.97265625 84.12890625 C190.13730128 84.66673037 188.30934722 85.23165421 186.49609375 85.83984375 C173.33505903 90.19794586 159.53528498 90.37815926 145.8125 90.3125 C144.9998468 90.31034485 144.1871936 90.3081897 143.34991455 90.30596924 C123.7593515 90.22269936 106.48272203 87.61434347 88 81 C87.34725098 80.77473633 86.69450195 80.54947266 86.02197266 80.31738281 C71.23160835 75.17056683 56.92327664 67.16713512 45 57 C44.16984375 56.3503125 43.3396875 55.700625 42.484375 55.03125 C26.30311802 42.27117307 12.83477624 26.99489876 2.625 9.0625 C2.04347168 8.04192505 2.04347168 8.04192505 1.45019531 7.00073242 C0.56258929 5.37045699 -0.2291543 3.68862054 -1 2 C-0.67 1.34 -0.34 0.68 0 0 Z M3 2 C4.9032417 8.74785692 7.95354829 15.09068013 13 20 C13.515625 20.886875 14.03125 21.77375 14.5625 22.6875 C15.036875 23.450625 15.51125 24.21375 16 25 C16.66 25 17.32 25 18 25 C18.1546875 25.9590625 18.1546875 25.9590625 18.3125 26.9375 C18.539375 27.618125 18.76625 28.29875 19 29 C19.99 29.33 20.98 29.66 22 30 C23.1875 32.5625 23.1875 32.5625 24 35 C24.66 35 25.32 35 26 35 C26 35.66 26 36.32 26 37 C29.07335571 40.3367862 32.33446661 43.32515131 36 46 C36.66 46 37.32 46 38 46 C38.2371875 46.75667969 38.474375 47.51335937 38.71875 48.29296875 C40.21732608 51.4591676 41.56322776 52.46748237 44.5 54.3125 C45.2940625 54.82425781 46.088125 55.33601563 46.90625 55.86328125 C48.89587482 57.15904268 48.89587482 57.15904268 51 57 C51.33 57.99 51.66 58.98 52 60 C63.78138615 68.72480321 77.8816302 75.2429752 91.71875 79.89453125 C94.03658288 80.67542019 96.33035104 81.52954408 98.6027832 82.43408203 C112.78201859 87.74888938 128.08647697 88.63965856 143.0769043 88.46655273 C145.82986967 88.43731553 148.58092585 88.44607294 151.33398438 88.45898438 C162.21131289 88.44406548 172.40246665 87.46508862 183 85 C183 84.34 183 83.68 183 83 C184.7634375 83.0928125 184.7634375 83.0928125 186.5625 83.1875 C190.16586754 83.18120041 192.77260853 82.49745294 196.05078125 80.90625 C198.321957 79.85031258 200.63064182 79.0619514 203 78.25 C207.77666488 76.5317275 212.39132892 74.55722179 217 72.4375 C217.64710938 72.14456055 218.29421875 71.85162109 218.9609375 71.54980469 C222.18556431 70.04123719 224.5866858 68.59732056 227 66 C228.41311685 65.16558815 229.85334225 64.37600002 231.3125 63.625 C235.34666823 61.44312143 238.67051028 59.15874666 242 56 C242 55.34 242 54.68 242 54 C244.475 53.505 244.475 53.505 247 53 C247.33 52.01 247.66 51.02 248 50 C248.99 49.67 249.98 49.34 251 49 C251 48.34 251 47.68 251 47 C251.70125 46.814375 252.4025 46.62875 253.125 46.4375 C257.04135028 44.47932486 259.5338864 41.59323769 262 38 C262 37.34 262 36.68 262 36 C262.639375 35.731875 263.27875 35.46375 263.9375 35.1875 C266.33131686 34.11332248 266.33131686 34.11332248 267 31 C267.62132812 30.69191406 268.24265625 30.38382812 268.8828125 30.06640625 C271.49918957 28.74856319 272.33288663 27.40749514 273.875 24.9375 C274.38546875 24.13570313 274.8959375 23.33390625 275.421875 22.5078125 C275.94265625 21.68023437 276.4634375 20.85265625 277 20 C278.03692346 18.43434824 279.07845943 16.87173973 280.125 15.3125 C280.61484375 14.57386719 281.1046875 13.83523438 281.609375 13.07421875 C282.48023023 11.77527457 283.36377567 10.48465114 284.265625 9.20703125 C286.5692386 5.94334238 286.5692386 5.94334238 287 2 C285.3973218 1.89175157 283.79254252 1.81429355 282.1875 1.75 C280.84751953 1.68039062 280.84751953 1.68039062 279.48046875 1.609375 C276.88274645 1.77476267 276.88274645 1.77476267 275.17578125 3.765625 C273.68954489 6.16915867 273.68954489 6.16915867 274 10 C273.34 10 272.68 10 272 10 C269.7226499 12.81509993 269.7226499 12.81509993 270 16 C269.34 16 268.68 16 268 16 C267.9175 16.61875 267.835 17.2375 267.75 17.875 C266.76374561 20.66938743 265.56609601 20.716952 263 22 C262.19471111 24.05000871 262.19471111 24.05000871 262 26 C261.34 26 260.68 26 260 26 C258.33333333 27.33333333 258.33333333 27.33333333 257 29 C257 29.66 257 30.32 257 31 C256.34 31 255.68 31 255 31 C255 31.99 255 32.98 255 34 C253 35 251 36 249 37 C249 37.66 249 38.32 249 39 C248.34 39 247.68 39 247 39 C245.33333333 40.33333333 245.33333333 40.33333333 244 42 C244 42.66 244 43.32 244 44 C242.7934375 44.4021875 242.7934375 44.4021875 241.5625 44.8125 C240.716875 45.204375 239.87125 45.59625 239 46 C238.67 46.99 238.34 47.98 238 49 C236 49.66666667 234 50.33333333 232 51 C230.64631404 52.31266518 229.31200404 53.64567325 228 55 C226.35448038 55.71727778 224.68577711 56.38325228 223 57 C220.55839652 58.36968 218.31132992 59.75093606 216.125 61.5 C210.76866264 65.28094402 204.18310136 67.01086274 198 69 C197.01 69.33 196.02 69.66 195 70 C195 70.66 195 71.32 195 72 C194.01 71.67 193.02 71.34 192 71 C189.92701984 71.69455521 187.85601504 72.39561268 185.79589844 73.12744141 C180.19888365 74.87418703 174.3961675 75.70888502 168.625 76.6875 C166.74941406 77.02491211 166.74941406 77.02491211 164.8359375 77.36914062 C140.12550682 81.62109235 111.98622522 77.99126158 89 68 C87.14820425 67.244165 85.2941822 66.49375078 83.4375 65.75 C82.67308594 65.43546875 81.90867187 65.1209375 81.12109375 64.796875 C79.03754003 63.94975935 79.03754003 63.94975935 76.91015625 63.578125 C74.56727492 62.86903208 73.67602789 61.75061552 72 60 C70.1344149 58.94218957 70.1344149 58.94218957 68.125 58.0625 C64.6739357 56.42245293 61.9856946 54.38855568 59 52 C58.01 52 57.02 52 56 52 C56 51.34 56 50.68 56 50 C55.34 50 54.68 50 54 50 C54 49.34 54 48.68 54 48 C53.01 48 52.02 48 51 48 C51 47.34 51 46.68 51 46 C49.37898212 44.58738471 49.37898212 44.58738471 47.3125 43.1875 C43.87747979 40.69259058 40.93365013 38.08409373 38 35 C36.77681871 33.72340468 35.54733576 32.45282553 34.3125 31.1875 C33.73113281 30.58292969 33.14976562 29.97835938 32.55078125 29.35546875 C31.09230108 27.78063276 31.09230108 27.78063276 29 28 C27.79371992 25.66785852 26.8345262 23.50357861 26 21 C25.34 20.67 24.68 20.34 24 20 C23.67 19.01 23.34 18.02 23 17 C22.01 17 21.02 17 20 17 C19.896875 16.27296875 19.79375 15.5459375 19.6875 14.796875 C18.9327406 11.72637652 17.80213465 9.83190445 16 7.25 C15.46375 6.47140625 14.9275 5.6928125 14.375 4.890625 C13.1368734 3.08488588 13.1368734 3.08488588 12 2 C10.48071962 1.92820036 8.95832518 1.91607993 7.4375 1.9375 C6.19806641 1.95103516 6.19806641 1.95103516 4.93359375 1.96484375 C3.97646484 1.98224609 3.97646484 1.98224609 3 2 Z " fill="#130F0A" transform="translate(105,323)"/>
<path d="M0 0 C2.4375 2.5625 2.4375 2.5625 4 5 C4.94359375 4.33291016 4.94359375 4.33291016 5.90625 3.65234375 C13.77749578 -1.55168772 13.77749578 -1.55168772 18.3125 -1.1875 C23.27265253 0.40983725 25.57092748 2.21676602 27.96875 6.88671875 C31.77544143 16.98502518 31.8301772 31.81160913 28.03515625 41.92578125 C24.53797815 48.93333434 20.50725865 53.42310368 13 56 C9.5 56.75 9.5 56.75 7 57 C7 53 7 53 8.875 51.125 C9.926875 50.073125 9.926875 50.073125 11 49 C15.96465613 37.76419929 15.27066675 22.54352972 12 11 C11.67 10.34 11.34 9.68 11 9 C8.54775306 9.10613836 8.54775306 9.10613836 6 10 C3.93451347 13.84520446 3.77473734 17.12614722 3.83984375 21.4375 C3.85080078 22.66210938 3.86175781 23.88671875 3.87304688 25.1484375 C3.89431641 26.41945312 3.91558594 27.69046875 3.9375 29 C3.97201365 31.52077496 4.0021349 34.04161482 4.02734375 36.5625 C4.05429321 38.23505859 4.05429321 38.23505859 4.08178711 39.94140625 C4.00566499 42.78814646 3.78919453 45.26486752 3 48 C0.53630468 49.23184766 -1.1894501 49.16732342 -3.9375 49.1875 C-5.25041016 49.20876953 -5.25041016 49.20876953 -6.58984375 49.23046875 C-9 49 -9 49 -12 47 C-12.39872742 45.16500854 -12.39872742 45.16500854 -12.43237305 42.91748047 C-12.46206429 41.65639969 -12.46206429 41.65639969 -12.49235535 40.36984253 C-12.49874527 39.46146637 -12.50513519 38.55309021 -12.51171875 37.6171875 C-12.52966995 36.68778351 -12.54762115 35.75837952 -12.56611633 34.80081177 C-12.62039848 31.82558767 -12.6541722 28.85052557 -12.6875 25.875 C-12.72065729 23.86065444 -12.75514544 21.84633032 -12.79101562 19.83203125 C-12.87613515 14.88813744 -12.94286061 9.94429318 -13 5 C-14.65 5.33 -16.3 5.66 -18 6 C-17.02632745 3.5117257 -16.44662682 2.25196666 -14.08203125 0.91796875 C-9.06619429 -0.69642284 -5.19948994 -1.63121253 0 0 Z " fill="#030202" transform="translate(298,223)"/>
<path d="M0 0 C0.69480469 -0.01611328 1.38960938 -0.03222656 2.10546875 -0.04882812 C6.87005483 -0.05331455 10.08414509 0.81016318 14.125 3.3125 C18.98096768 8.43095242 19.23717973 12.38027385 19.44140625 19.265625 C19.46218735 19.92584656 19.48296844 20.58606812 19.50437927 21.26629639 C19.56950147 23.36493015 19.62858502 25.46368372 19.6875 27.5625 C19.73072079 28.98959547 19.7743362 30.41667905 19.81835938 31.84375 C19.92514411 35.33320722 20.02651566 38.82279753 20.125 42.3125 C22.105 41.8175 22.105 41.8175 24.125 41.3125 C23.61896008 43.48124252 23.12516187 45.31217627 22.125 47.3125 C17.86322241 49.70974989 12.90730655 50.14537361 8.125 49.3125 C6.3515625 47.91796875 6.3515625 47.91796875 5.125 46.3125 C5.125 45.6525 5.125 44.9925 5.125 44.3125 C4.45017578 44.85390625 4.45017578 44.85390625 3.76171875 45.40625 C-1.21602135 48.99740518 -5.17352286 50.08996354 -11.3125 49.80859375 C-15.41846366 49.0136892 -17.12260924 47.42704743 -19.875 44.3125 C-21.59172745 39.16231766 -21.46777166 34.23900789 -19.875 29.0625 C-15.50559902 23.05457366 -8.80067353 20.69207 -1.9765625 18.3046875 C0.4535531 17.37822859 0.4535531 17.37822859 2.125 14.3125 C2.36555468 12.25540404 2.36555468 12.25540404 2.25 10.125 C2.20875 8.866875 2.1675 7.60875 2.125 6.3125 C-2.1914922 5.55076608 -5.61933453 5.15186396 -9.875 6.3125 C-9.215 6.84875 -8.555 7.385 -7.875 7.9375 C-5.875 10.3125 -5.875 10.3125 -5.625 13.5625 C-5.7075 14.47 -5.79 15.3775 -5.875 16.3125 C-8.33893719 17.86386786 -9.55589146 18.34289129 -12.5 18.0625 C-14.875 17.3125 -14.875 17.3125 -16.875 15.3125 C-17.67563542 8.33553415 -17.67563542 8.33553415 -14.625 4.4375 C-9.71762631 0.64543851 -6.17499705 -0.02832567 0 0 Z M0.125 22.3125 C-3.10514784 24.46593189 -4.63186537 25.58309611 -5.875 29.3125 C-5.96725211 30.81024018 -6.0050019 32.31192974 -6 33.8125 C-6.00257813 34.5859375 -6.00515625 35.359375 -6.0078125 36.15625 C-5.95645813 38.49697017 -5.95645813 38.49697017 -4.875 41.3125 C-3.225 41.6425 -1.575 41.9725 0.125 42.3125 C2.69261548 39.69771048 3.1206345 38.36721424 3.41796875 34.640625 C3.39816751 33.28093965 3.36259202 31.9214066 3.3125 30.5625 C3.29896484 29.86511719 3.28542969 29.16773438 3.27148438 28.44921875 C3.2362945 26.73664459 3.18249155 25.02447059 3.125 23.3125 C2.135 22.9825 1.145 22.6525 0.125 22.3125 Z " fill="#030202" transform="translate(255.875,222.6875)"/>
<path d="M0 0 C1.98 0.66 3.96 1.32 6 2 C6 2.66 6 3.32 6 4 C7.216875 4.226875 8.43375 4.45375 9.6875 4.6875 C14.04077459 5.76247674 15.90270182 7.74783691 19 11 C20.33076205 11.71223884 21.68763659 12.37713371 23.0625 13 C26.77385361 14.7166748 28.54459656 16.69790572 31 20 C32.65661761 21.01656081 34.32111559 22.02065076 36 23 C36 23.66 36 24.32 36 25 C36.66 25 37.32 25 38 25 C38.495 26.98 38.495 26.98 39 29 C39.639375 29.103125 40.27875 29.20625 40.9375 29.3125 C41.618125 29.539375 42.29875 29.76625 43 30 C43.495 31.485 43.495 31.485 44 33 C44.66 33 45.32 33 46 33 C50 37.35294118 50 37.35294118 50 41 C50.5775 41.04125 51.155 41.0825 51.75 41.125 C55.16879475 42.45453129 56.22666645 44.89666629 58 48 C58 48.66 58 49.32 58 50 C58.99 50.33 59.98 50.66 61 51 C62.24609375 53.109375 62.24609375 53.109375 63.4375 55.75 C64.80718869 58.64883368 65.95975519 60.95095164 68 63.4375 C71.95340421 68.50279914 75 74.54630085 75 81 C70.92996443 81.48452804 69.26560076 81.16855433 65.75 78.9375 C62.62073405 76.10084073 62.01333192 73.05332767 61 69 C60.01 68.67 59.02 68.34 58 68 C57.26953125 65.93359375 57.26953125 65.93359375 56.8125 63.4375 C56.57466797 62.19806641 56.57466797 62.19806641 56.33203125 60.93359375 C56.22246094 60.29550781 56.11289062 59.65742188 56 59 C55.34 59 54.68 59 54 59 C53.731875 58.38125 53.46375 57.7625 53.1875 57.125 C52.04443152 54.7004767 52.04443152 54.7004767 49 53 C49 52.34 49 51.68 49 51 C48.34 51 47.68 51 47 51 C44.67980703 47.80973467 42.65356922 44.58273331 41 41 C40.34 41 39.68 41 39 41 C37.64613064 39.34997172 36.31321858 37.6825613 35 36 C34.01 35.505 34.01 35.505 33 35 C33 34.34 33 33.68 33 33 C32.34 33 31.68 33 31 33 C31 32.34 31 31.68 31 31 C30.401875 30.731875 29.80375 30.46375 29.1875 30.1875 C26.97533274 28.9866092 25.7667183 27.7667183 24 26 C22.948125 25.34 21.89625 24.68 20.8125 24 C19.884375 23.34 18.95625 22.68 18 22 C18 21.01 18 20.02 18 19 C17.319375 18.9175 16.63875 18.835 15.9375 18.75 C10.93037148 17.47158421 6.41526356 14.95451571 3 11 C2.34 10.34 1.68 9.68 1 9 C1.66 9 2.32 9 3 9 C3 8.34 3 7.68 3 7 C2.34 6.67 1.68 6.34 1 6 C0.32624548 3.911361 0 2.19636905 0 0 Z " fill="#272725" transform="translate(322,106)"/>
<path d="M0 0 C0.94101562 -0.01675781 1.88203125 -0.03351563 2.8515625 -0.05078125 C5.85808753 0.38204666 6.53482759 0.95555854 8.375 3.3125 C8.7492218 5.33021545 8.7492218 5.33021545 8.74731445 7.66040039 C8.75665764 8.97174706 8.75665764 8.97174706 8.76618958 10.30958557 C8.75697983 11.2502739 8.74777008 12.19096222 8.73828125 13.16015625 C8.73877975 14.12779404 8.73927826 15.09543182 8.73979187 16.09239197 C8.73745144 18.13754328 8.72772478 20.18269747 8.71118164 22.2277832 C8.6875654 25.36630866 8.69062388 28.50398628 8.69726562 31.64257812 C8.69168978 33.62760925 8.68458049 35.61263679 8.67578125 37.59765625 C8.67714836 39.01172508 8.67714836 39.01172508 8.67854309 40.45436096 C8.66901108 41.32543991 8.65947906 42.19651886 8.6496582 43.09399414 C8.64505081 43.86215958 8.64044342 44.63032501 8.63569641 45.42176819 C8.375 47.3125 8.375 47.3125 6.375 49.3125 C3.84375 49.578125 3.84375 49.578125 0.875 49.5625 C-0.1046875 49.56765625 -1.084375 49.5728125 -2.09375 49.578125 C-4.625 49.3125 -4.625 49.3125 -6.625 47.3125 C-6.9034729 45.51547241 -6.9034729 45.51547241 -6.94384766 43.32177734 C-6.96371735 42.50107758 -6.98358704 41.68037781 -7.00405884 40.83480835 C-7.01561005 39.94830597 -7.02716125 39.06180359 -7.0390625 38.1484375 C-7.05842865 37.24122955 -7.0777948 36.33402161 -7.0977478 35.39932251 C-7.15763216 32.49547796 -7.20396416 29.59159396 -7.25 26.6875 C-7.28817165 24.72133667 -7.32722289 22.7551902 -7.3671875 20.7890625 C-7.46334091 15.9636783 -7.547339 11.13821582 -7.625 6.3125 C-9.275 6.3125 -10.925 6.3125 -12.625 6.3125 C-11.62533572 3.58614287 -11.0372629 2.51827045 -8.39453125 1.19921875 C-5.45518843 0.25813156 -3.07960896 0.01272566 0 0 Z " fill="#020202" transform="translate(343.625,222.6875)"/>
<path d="M0 0 C-1 2 -1 2 -3.5 2.875 C-6.1350535 3.72898539 -6.1350535 3.72898539 -6.875 5.9375 C-7.14078645 8.19937274 -7.14078645 8.19937274 -6 11 C-7.98 10.67 -9.96 10.34 -12 10 C-12 11.32 -12 12.64 -12 14 C-12.66 14 -13.32 14 -14 14 C-14 13.01 -14 12.02 -14 11 C-14.99 10.505 -14.99 10.505 -16 10 C-13.35261084 8.5393715 -12.10551666 8 -9 8 C-9 7.34 -9 6.68 -9 6 C-10.1446875 6.495 -10.1446875 6.495 -11.3125 7 C-14 8 -14 8 -17 8 C-17 8.66 -17 9.32 -17 10 C-18.134375 10.268125 -19.26875 10.53625 -20.4375 10.8125 C-21.613125 11.204375 -22.78875 11.59625 -24 12 C-24.33 12.99 -24.66 13.98 -25 15 C-26.65299041 15.69988923 -28.32231516 16.36156771 -30 17 C-31.6003677 18.1577128 -33.16396689 19.36789119 -34.6875 20.625 C-38.78571429 24 -38.78571429 24 -41 24 C-41.495 25.485 -41.495 25.485 -42 27 C-42.66 27 -43.32 27 -44 27 C-44 27.66 -44 28.32 -44 29 C-44.99 29 -45.98 29 -47 29 C-47.226875 29.556875 -47.45375 30.11375 -47.6875 30.6875 C-49.37028092 33.65239972 -51.56108512 35.616515 -54 38 C-55.57989461 39.86326637 -57.13253798 41.74448632 -58.66796875 43.64453125 C-59.10753906 44.09183594 -59.54710937 44.53914063 -60 45 C-60.66 45 -61.32 45 -62 45 C-62.268125 45.763125 -62.53625 46.52625 -62.8125 47.3125 C-63.95134505 49.88988618 -64.81416671 51.26954864 -67 53 C-67.66 53 -68.32 53 -69 53 C-69.2165625 53.928125 -69.2165625 53.928125 -69.4375 54.875 C-70 57 -70 57 -71 59 C-71.66 59 -72.32 59 -73 59 C-73.33 60.65 -73.66 62.3 -74 64 C-74.66 64 -75.32 64 -76 64 C-76.268125 64.886875 -76.53625 65.77375 -76.8125 66.6875 C-77.9343816 69.81695919 -79.22720222 72.20443427 -81 75 C-83.20308365 78.63344393 -84.95606987 81.82427946 -86 86 C-83.03 86.33 -80.06 86.66 -77 87 C-76.938125 86.195625 -76.87625 85.39125 -76.8125 84.5625 C-75.73463007 79.8364549 -73.48408581 76.12486573 -71 72 C-70.34 72 -69.68 72 -69 72 C-68.7525 70.948125 -68.505 69.89625 -68.25 68.8125 C-67.21740482 65.1836655 -65.65228327 62.73516712 -63 60 C-62.34 60 -61.68 60 -61 60 C-60.7525 59.278125 -60.505 58.55625 -60.25 57.8125 C-58.32973042 53.49189344 -55.38201749 50.24673679 -52 47 C-51.2575 46.236875 -50.515 45.47375 -49.75 44.6875 C-47.08586523 42.08391375 -44.32567242 39.69876054 -41.453125 37.33203125 C-39.87220817 36.0420309 -39.87220817 36.0420309 -39 34 C-38.34 34 -37.68 34 -37 34 C-36.79375 33.401875 -36.5875 32.80375 -36.375 32.1875 C-34.48884712 29.18680224 -32.16073987 28.51715514 -29 27 C-28.34 26.34 -27.68 25.68 -27 25 C-24.57395853 22.57395853 -22.13171724 21.36161619 -19 20 C-18.34 20 -17.68 20 -17 20 C-17 19.34 -17 18.68 -17 18 C-15.68 18 -14.36 18 -13 18 C-12.77957031 17.38253906 -12.55914062 16.76507813 -12.33203125 16.12890625 C-10.52946923 13.24797868 -8.8934064 12.93961689 -5.6875 11.9375 C-1.73064913 10.67972885 1.45404266 9.14223178 5 7 C7.5 6.05078125 7.5 6.05078125 10 5.3125 C10.825 5.06113281 11.65 4.80976562 12.5 4.55078125 C15.07841188 3.98272488 17.36855979 3.90132099 20 4 C16.86717606 7.45968551 13.17645513 8.58876603 8.875 10.125 C-3.65118065 14.80455371 -15.5197778 20.69506348 -26.21484375 28.78515625 C-28 30 -28 30 -30 30 C-30 30.66 -30 31.32 -30 32 C-31.50390625 33.296875 -31.50390625 33.296875 -33.5625 34.75 C-52.38824008 48.47157816 -66.00334818 68.20814725 -76 89 C-78.12472576 89.05386629 -80.24983652 89.09273071 -82.375 89.125 C-83.55835937 89.14820313 -84.74171875 89.17140625 -85.9609375 89.1953125 C-89 89 -89 89 -91 87 C-82.80316917 70.23186384 -73.77328072 55.15170576 -61.55078125 40.98046875 C-60.03840611 39.21332904 -58.56116347 37.41332515 -57.16796875 35.55078125 C-54.11479839 31.95849252 -50.60418909 29.02649987 -47 26 C-46.34741211 25.44650879 -45.69482422 24.89301758 -45.02246094 24.32275391 C-36.2942087 17.01744502 -27.27594088 10.64623283 -17.3125 5.125 C-15.93263916 4.34829956 -15.93263916 4.34829956 -14.52490234 3.5559082 C-9.40949994 0.82084302 -5.81483376 -0.65227957 0 0 Z " fill="#17150E" transform="translate(189,100)"/>
<path d="M0 0 C0.66 0 1.32 0 2 0 C2.36738281 0.93972656 2.36738281 0.93972656 2.7421875 1.8984375 C5.0240266 7.04772353 5.0240266 7.04772353 9.55859375 10.04296875 C12.0504116 10.51305637 14.46982374 10.84769813 17 11 C15.8120668 13.61775325 15.20143321 14.85611914 12.8125 16.5625 C10.09437194 20.2179136 11.06884694 23.36599065 11.640625 27.734375 C11.75921875 28.48203125 11.8778125 29.2296875 12 30 C11.01 30.33 10.02 30.66 9 31 C8.236875 30.525625 7.47375 30.05125 6.6875 29.5625 C3.43587187 27.67201853 1.70950366 27.53631204 -2 28 C-4.71126384 29.42621684 -4.71126384 29.42621684 -7 31 C-7.66 31 -8.32 31 -9 31 C-8.93039063 30.20335937 -8.86078125 29.40671875 -8.7890625 28.5859375 C-8.28255107 22.48315864 -8.28255107 22.48315864 -10.3359375 16.9375 C-11.81918778 15.54477674 -13.40475873 14.26289934 -15 13 C-15 12.34 -15 11.68 -15 11 C-14.00419922 10.94005859 -14.00419922 10.94005859 -12.98828125 10.87890625 C-7.4181425 10.27792772 -7.4181425 10.27792772 -3.22265625 6.86328125 C-2.00290674 4.61116404 -0.93220669 2.38448658 0 0 Z " fill="#040202" transform="translate(249,324)"/>
<path d="M0 0 C14.88390888 6.92005114 27.34025616 15.58933153 40 26 C40.64195312 26.50660156 41.28390625 27.01320312 41.9453125 27.53515625 C43.33512797 28.6437765 44.67509888 29.81456215 46 31 C46 31.66 46 32.32 46 33 C46.66 33 47.32 33 48 33 C52.67227358 37.39352999 56.49805336 42.82390652 60.4375 47.875 C60.88673828 48.44629639 61.33597656 49.01759277 61.79882812 49.60620117 C65 53.76338193 65 53.76338193 65 56 C65.66 56 66.32 56 67 56 C68.70937802 58.55347796 70.28024117 61.09225189 71.8125 63.75 C72.26028809 64.51973145 72.70807617 65.28946289 73.16943359 66.08251953 C82 81.52396468 82 81.52396468 82 88 C77.38 88 72.76 88 68 88 C64.535 81.07 64.535 81.07 61 74 C61.99 74 62.98 74 64 74 C64.5878125 75.3303125 64.5878125 75.3303125 65.1875 76.6875 C67.12177206 80.22254893 68.87744246 82.4583834 72 85 C73.98783515 85.3995279 75.98889107 85.74202327 78 86 C75.19377006 78.24836483 72.62402077 71.49378576 67.4375 65.0625 C66 63 66 63 64.5 59.4375 C63.16195251 56.37114118 62.41184219 55.11036192 60 53 C57 49.33333333 57 49.33333333 57 47 C56.1028125 46.9071875 56.1028125 46.9071875 55.1875 46.8125 C52.08904655 45.66164586 51.44682943 43.89365887 50 41 C49.67 40.01 49.34 39.02 49 38 C48.34 38 47.68 38 47 38 C46.34 37.01 45.68 36.02 45 35 C44.01 34.67 43.02 34.34 42 34 C41.3125 31.9375 41.3125 31.9375 41 30 C40.34 30 39.68 30 39 30 C39 29.34 39 28.68 39 28 C38.2575 27.731875 37.515 27.46375 36.75 27.1875 C34.09090121 26.0392528 32.12218515 24.96498625 30 23 C30 22.01 30 21.02 30 20 C28.7315625 19.6596875 28.7315625 19.6596875 27.4375 19.3125 C23.49613144 17.80761382 20.11238141 15.87296745 17 13 C17 12.34 17 11.68 17 11 C16.43410156 10.87882812 15.86820312 10.75765625 15.28515625 10.6328125 C14.18494141 10.38144531 14.18494141 10.38144531 13.0625 10.125 C12.33160156 9.96257812 11.60070312 9.80015625 10.84765625 9.6328125 C9 9 9 9 8 7 C7.236875 6.71125 6.47375 6.4225 5.6875 6.125 C2.71091157 4.87898624 1.13992716 3.37769684 -1 1 C-0.67 0.67 -0.34 0.34 0 0 Z " fill="#17140D" transform="translate(319,101)"/>
<path d="M0 0 C0.96164062 -0.00515625 1.92328125 -0.0103125 2.9140625 -0.015625 C5.375 0.25 5.375 0.25 7.375 2.25 C7.8125 5.1875 7.8125 5.1875 7.375 8.25 C2.97240255 12.11894928 -2.40474655 12.37110473 -8.0625 12.0625 C-16.07414809 12.48416569 -21.95369034 17.80309157 -28.109375 22.54296875 C-30.40240833 24.09895565 -31.92343716 24.8270918 -34.625 25.25 C-35.625 22.25 -35.625 22.25 -34.50390625 19.7890625 C-29.46623645 12.98140061 -21.51834543 10.00829309 -13.58203125 7.99609375 C-11.33715981 7.38493012 -11.33715981 7.38493012 -10.25 4.6875 C-9.940625 3.4809375 -9.940625 3.4809375 -9.625 2.25 C-6.46740112 0.12300631 -3.74597536 -0.02019394 0 0 Z " fill="#040201" transform="translate(335.625,280.75)"/>
<path d="M0 0 C0.99 0 1.98 0 3 0 C3.13535156 0.55429687 3.27070313 1.10859375 3.41015625 1.6796875 C4.09399921 3.98100333 4.77508175 5.93031054 6 8 C9.54863159 9.61135346 9.54863159 9.61135346 13 10 C13 10.99 13 11.98 13 13 C12.030625 13.53625 11.06125 14.0725 10.0625 14.625 C6.862912 16.61638977 6.862912 16.61638977 6.37890625 19.2578125 C6.14885512 21.51585285 6.00969728 23.73083711 6 26 C5.01 25.67 4.02 25.34 3 25 C3 24.34 3 23.68 3 23 C-1.3164922 22.23826608 -4.74433453 21.83936396 -9 23 C-10 21 -10 21 -9.375 17.6875 C-8.94830951 13.49171017 -9.61733764 12.3357273 -12 9 C-12 8.34 -12 7.68 -12 7 C-10.741875 6.896875 -9.48375 6.79375 -8.1875 6.6875 C-5.55064273 6.35672815 -4.25450453 6.18061612 -2.0625 4.625 C-0.81390177 2.86586082 -0.81390177 2.86586082 0 0 Z " fill="#050302" transform="translate(282,337)"/>
<path d="M0 0 C1.70884005 1.62339805 3.37446717 3.29319053 5 5 C5 5.66 5 6.32 5 7 C7.97 7 10.94 7 14 7 C12.13986014 11.78321678 12.13986014 11.78321678 10.75 13.9375 C9.62415562 17.03357205 10.79255741 19.04847367 12 22 C9 23 9 23 5.6875 22.3125 C1.09563169 21.92335862 -0.48628745 23.1718899 -4 26 C-3.99097656 25.40832031 -3.98195312 24.81664062 -3.97265625 24.20703125 C-4.09152485 19.29969762 -4.09152485 19.29969762 -6.625 15.2890625 C-8.75889119 13.75455946 -8.75889119 13.75455946 -12 12 C-10 10 -10 10 -6.5 9.3125 C-5.345 8.879375 -4.19 8.44625 -3 8 C-1.52917453 4.52042471 -1.52917453 4.52042471 -1 1 C-0.67 0.67 -0.34 0.34 0 0 Z " fill="#040202" transform="translate(216,337)"/>
<path d="M0 0 C0.6875 2.0625 0.6875 2.0625 1 4 C-0.05058594 4.25394531 -1.10117187 4.50789063 -2.18359375 4.76953125 C-9.5700567 6.57370364 -16.82888829 8.44757041 -24 11 C-24.99 11.33 -25.98 11.66 -27 12 C-27.14953125 12.63550781 -27.2990625 13.27101563 -27.453125 13.92578125 C-28 16 -28 16 -29.671875 17.23046875 C-33.42539438 18.9590632 -36.85192948 20.48149118 -41 21 C-42.625 18.75 -42.625 18.75 -44 16 C-42.52440563 11.46718615 -39.36386246 10.12887675 -35.35546875 8.01953125 C-32.28768782 6.69168577 -29.30544179 6.45592301 -26 6 C-24.25355196 5.2253434 -22.52573036 4.4080858 -20.8125 3.5625 C-14.56155884 0.57968575 -6.81627235 -2.27209078 0 0 Z " fill="#050202" transform="translate(371,287)"/>
<path d="M0 0 C0 0.99 0 1.98 0 3 C-1.65 2.34 -3.3 1.68 -5 1 C-5 0.34 -5 -0.32 -5 -1 C-5.79664063 -1.13277344 -6.59328125 -1.26554687 -7.4140625 -1.40234375 C-9.5390625 -1.75651042 -11.6640625 -2.11067708 -13.7890625 -2.46484375 C-14.84867187 -2.64144531 -15.90828125 -2.81804687 -17 -3 C-18.58941406 -3.28037109 -18.58941406 -3.28037109 -20.2109375 -3.56640625 C-23.02363774 -4.07680846 -23.02363774 -4.07680846 -26 -4 C-25.67 -4.66 -25.34 -5.32 -25 -6 C-45.32434345 -8.83035301 -64.68142661 -10.44800033 -85 -7 C-85 -6.34 -85 -5.68 -85 -5 C-90.75 -5.875 -90.75 -5.875 -93 -7 C-93 -6.34 -93 -5.68 -93 -5 C-94.12019531 -4.73445313 -95.24039063 -4.46890625 -96.39453125 -4.1953125 C-97.86726338 -3.83885504 -99.33991551 -3.48206692 -100.8125 -3.125 C-101.55048828 -2.95097656 -102.28847656 -2.77695313 -103.04882812 -2.59765625 C-106.49717037 -1.75507489 -109.01928362 -0.98714425 -112 1 C-114.32387947 1.39387788 -116.65793749 1.73486085 -119 2 C-118.01624967 -0.62934582 -117.45774881 -1.77099236 -114.90307617 -3.04907227 C-114.04174072 -3.30229248 -113.18040527 -3.5555127 -112.29296875 -3.81640625 C-110.84035645 -4.2484436 -110.84035645 -4.2484436 -109.35839844 -4.68920898 C-107.78880371 -5.12148804 -107.78880371 -5.12148804 -106.1875 -5.5625 C-104.56956543 -6.01701538 -104.56956543 -6.01701538 -102.91894531 -6.48071289 C-73.93858665 -14.33363349 -25.58215094 -19.22416039 0 0 Z " fill="#16130A" transform="translate(309,98)"/>
<path d="M0 0 C2.625 0.375 2.625 0.375 5 1 C5.50898503 10.50105396 3.20569281 16.12493519 -3.125 23.1875 C-9.6852853 30.2081562 -16.45708975 34.4932247 -26 36 C-26.66 35.34 -27.32 34.68 -28 34 C-27.14277344 33.5875 -26.28554688 33.175 -25.40234375 32.75 C-15.33770129 27.66661801 -8.00426562 21.87452845 -4 11 C-3.40388362 8.63451908 -2.90270003 6.28724301 -2.4921875 3.8828125 C-2 2 -2 2 0 0 Z " fill="#040202" transform="translate(411,285)"/>
<path d="M0 0 C6.4188547 1.73624758 12.13784836 3.85180745 18 7 C18 7.66 18 8.32 18 9 C19.423125 9.433125 19.423125 9.433125 20.875 9.875 C24 11 24 11 26 13 C28.06874034 13.6425235 28.06874034 13.6425235 30 14 C30 14.99 30 15.98 30 17 C30.556875 17.268125 31.11375 17.53625 31.6875 17.8125 C36.05661195 20.05609803 39.74269255 22.26012849 43 26 C43 26.66 43 27.32 43 28 C43.66 28 44.32 28 45 28 C45 28.66 45 29.32 45 30 C45.61875 30.2475 46.2375 30.495 46.875 30.75 C49.35068687 32.20628639 49.95125002 33.37812506 51 36 C51.66 36 52.32 36 53 36 C54.5078125 37.6796875 54.5078125 37.6796875 56.125 39.875 C56.66382813 40.59429687 57.20265625 41.31359375 57.7578125 42.0546875 C59 44 59 44 59 46 C59.66 46 60.32 46 61 46 C66 51.47619048 66 51.47619048 66 54 C66.66 54 67.32 54 68 54 C68.99 56.97 69.98 59.94 71 63 C67.31110731 61.7703691 67.12323318 60.88823057 65.3125 57.5625 C61.5769212 51.06948648 57.15947951 45.04939312 51.7578125 39.8359375 C50 38 50 38 50 36 C49.34 36 48.68 36 48 36 C47.360625 35.195625 46.72125 34.39125 46.0625 33.5625 C42.09756188 28.60046206 36.97054407 24.89888067 32 21 C31.32839844 20.46246094 30.65679687 19.92492187 29.96484375 19.37109375 C20.78112869 12.21520537 10.7332637 6.47398567 0 2 C0 1.34 0 0.68 0 0 Z " fill="#15130B" transform="translate(310,111)"/>
<path d="M0 0 C0 0.66 0 1.32 0 2 C0.66 2 1.32 2 2 2 C2.32316568 5.55482252 2.45553291 7.37575119 0.3125 10.3125 C-2.32042072 12.23382053 -3.74952771 12.84521561 -7 13 C-10.25 12.1875 -10.25 12.1875 -13 11 C-14.52491998 7.95016004 -14.23562548 5.3576631 -14 2 C-12.55625946 -0.16561081 -11.51716637 -0.79313345 -9.125 -1.75 C-5.77714286 -2.14386555 -2.99789946 -1.49894973 0 0 Z " fill="#060403" transform="translate(350,207)"/>
<path d="M0 0 C0 0.33 0 0.66 0 1 C-1.65 1 -3.3 1 -5 1 C-5 1.66 -5 2.32 -5 3 C-7.64 3.33 -10.28 3.66 -13 4 C-13 4.66 -13 5.32 -13 6 C-18.75 5.125 -18.75 5.125 -21 4 C-21 4.66 -21 5.32 -21 6 C-22.12019531 6.26554687 -23.24039063 6.53109375 -24.39453125 6.8046875 C-25.86726338 7.16114496 -27.33991551 7.51793308 -28.8125 7.875 C-29.55048828 8.04902344 -30.28847656 8.22304687 -31.04882812 8.40234375 C-34.49717037 9.24492511 -37.01928362 10.01285575 -40 12 C-42.32387947 12.39387788 -44.65793749 12.73486085 -47 13 C-46.00316868 10.26208395 -45.43889676 9.20868407 -42.76025391 7.93505859 C-41.84163574 7.67547363 -40.92301758 7.41588867 -39.9765625 7.1484375 C-38.95433594 6.85453125 -37.93210938 6.560625 -36.87890625 6.2578125 C-35.26822266 5.82082031 -35.26822266 5.82082031 -33.625 5.375 C-32.07232422 4.92640625 -32.07232422 4.92640625 -30.48828125 4.46875 C-20.38431642 1.62504383 -10.51920904 -0.3506403 0 0 Z " fill="#1D1B13" transform="translate(237,87)"/>
<path d="M0 0 C-2.08759757 2.30977645 -3.77363817 3.51030629 -6.703125 4.54296875 C-7.42951172 4.80851562 -8.15589844 5.0740625 -8.90429688 5.34765625 C-9.67837891 5.62480469 -10.45246094 5.90195313 -11.25 6.1875 C-18.31069443 8.79875439 -24.88290558 11.83551722 -31.40332031 15.59838867 C-32.90662253 16.45200471 -34.45036787 17.23369839 -36 18 C-36.66 17.67 -37.32 17.34 -38 17 C-37.505 15.515 -37.505 15.515 -37 14 C-35.68 14 -34.36 14 -33 14 C-32.77957031 13.38253906 -32.55914062 12.76507813 -32.33203125 12.12890625 C-30.52946923 9.24797868 -28.8934064 8.93961689 -25.6875 7.9375 C-21.73064913 6.67972885 -18.54595734 5.14223178 -15 3 C-12.5 2.05078125 -12.5 2.05078125 -10 1.3125 C-9.175 1.06113281 -8.35 0.80976562 -7.5 0.55078125 C-4.92158812 -0.01727512 -2.63144021 -0.09867901 0 0 Z " fill="#1C1A13" transform="translate(209,104)"/>
<path d="M0 0 C3.375 0.0625 3.375 0.0625 7 1 C9.51673362 4.38186081 10.07682748 6.17026321 9.6875 10.375 C9.460625 11.24125 9.23375 12.1075 9 13 C7.52168779 13.19412181 6.04230684 13.38012131 4.5625 13.5625 C3.73878906 13.66691406 2.91507813 13.77132813 2.06640625 13.87890625 C1.38449219 13.91886719 0.70257813 13.95882813 0 14 C-1 13 -1 13 -1.1328125 10.3125 C-1.13023437 9.219375 -1.12765625 8.12625 -1.125 7 C-1.12757813 5.906875 -1.13015625 4.81375 -1.1328125 3.6875 C-1 1 -1 1 0 0 Z M2 3 C2.66 3.66 3.32 4.32 4 5 C4.33 4.34 4.66 3.68 5 3 C4.01 3 3.02 3 2 3 Z M2 7 C2 8.32 2 9.64 2 11 C3.65 11 5.3 11 7 11 C7 9.68 7 8.36 7 7 C5.35 7 3.7 7 2 7 Z " fill="#0D0504" transform="translate(196,285)"/>
<path d="M0 0 C6.05462108 -0.367194 10.89820774 0.91997412 16.625 2.8125 C17.87410156 3.20405273 17.87410156 3.20405273 19.1484375 3.60351562 C27.53938517 6.30919541 27.53938517 6.30919541 31 9 C31 9.99 31 10.98 31 12 C29.35 11.34 27.7 10.68 26 10 C26 9.34 26 8.68 26 8 C25.20335937 7.86722656 24.40671875 7.73445313 23.5859375 7.59765625 C21.4609375 7.24348958 19.3359375 6.88932292 17.2109375 6.53515625 C16.15132813 6.35855469 15.09171875 6.18195313 14 6 C12.94039063 5.81308594 11.88078125 5.62617187 10.7890625 5.43359375 C7.97636226 4.92319154 7.97636226 4.92319154 5 5 C5.33 4.34 5.66 3.68 6 3 C4.02 2.34 2.04 1.68 0 1 C0 0.67 0 0.34 0 0 Z " fill="#1B1912" transform="translate(278,89)"/>
<path d="M0 0 C0 0.33 0 0.66 0 1 C-5.28 1 -10.56 1 -16 1 C-16 1.66 -16 2.32 -16 3 C-23.35793733 3.91160286 -30.58982977 4.11459026 -38 4 C-37.67 3.34 -37.34 2.68 -37 2 C-35.19335938 1.49755859 -35.19335938 1.49755859 -32.84375 1.1484375 C-31.55597656 0.95507812 -31.55597656 0.95507812 -30.2421875 0.7578125 C-28.88480469 0.56832031 -28.88480469 0.56832031 -27.5 0.375 C-26.62601563 0.2409375 -25.75203125 0.106875 -24.8515625 -0.03125 C-16.37421452 -1.26386143 -8.46311541 -1.2309986 0 0 Z " fill="#201C1B" transform="translate(256,98)"/>
<path d="M0 0 C2 2 2 2 2.1953125 4.1640625 C2.17210937 4.97617188 2.14890625 5.78828125 2.125 6.625 C2.10695312 7.44226563 2.08890625 8.25953125 2.0703125 9.1015625 C2.03550781 10.04128906 2.03550781 10.04128906 2 11 C1.01 11 0.02 11 -1 11 C-1.66 13.97 -2.32 16.94 -3 20 C-3.33 20 -3.66 20 -4 20 C-4.00257813 19.02417969 -4.00515625 18.04835937 -4.0078125 17.04296875 C-4.04648438 15.77066406 -4.08515625 14.49835938 -4.125 13.1875 C-4.14820313 11.92292969 -4.17140625 10.65835938 -4.1953125 9.35546875 C-4.65603127 5.72207527 -4.65603127 5.72207527 -8.0546875 4.05078125 C-9.02664062 3.70402344 -9.99859375 3.35726562 -11 3 C-8 2 -8 2 -4.375 1.5 C-1.16893124 1.36754688 -1.16893124 1.36754688 0 0 Z " fill="#121112" transform="translate(206,196)"/>
<path d="M0 0 C0.66 0.33 1.32 0.66 2 1 C2.625 3.5625 2.625 3.5625 3 6 C4.65 5.01 6.3 4.02 8 3 C8 6 8 6 7 9 C7.87483915 11.16715557 7.87483915 11.16715557 9 13 C6 13 6 13 3 11 C2.01 11.99 1.02 12.98 0 14 C-1 13 -1 13 -1.1328125 10.3125 C-1.13023437 9.219375 -1.12765625 8.12625 -1.125 7 C-1.12757813 5.906875 -1.13015625 4.81375 -1.1328125 3.6875 C-1 1 -1 1 0 0 Z " fill="#040100" transform="translate(226,285)"/>
<path d="M0 0 C-1 2 -1 2 -3.5 2.875 C-6.1350535 3.72898539 -6.1350535 3.72898539 -6.875 5.9375 C-7.14078645 8.19937274 -7.14078645 8.19937274 -6 11 C-8.97 10.505 -8.97 10.505 -12 10 C-12 11.32 -12 12.64 -12 14 C-12.66 14 -13.32 14 -14 14 C-14 13.01 -14 12.02 -14 11 C-14.66 10.67 -15.32 10.34 -16 10 C-13.35261084 8.5393715 -12.10551666 8 -9 8 C-9 7.34 -9 6.68 -9 6 C-9.61875 6.185625 -10.2375 6.37125 -10.875 6.5625 C-13 7 -13 7 -15 6 C-15 5.34 -15 4.68 -15 4 C-9.77228537 0.95842058 -6.07328688 -0.50610724 0 0 Z " fill="#23221D" transform="translate(189,100)"/>
<path d="M0 0 C1 1 1 1 1.09765625 3.06640625 C1.08605469 3.89011719 1.07445312 4.71382813 1.0625 5.5625 C1.05347656 6.38878906 1.04445312 7.21507812 1.03515625 8.06640625 C1.02355469 8.70449219 1.01195312 9.34257812 1 10 C-1.75 10.75 -1.75 10.75 -5 11 C-7.4375 9.375 -7.4375 9.375 -9 7 C-8.9375 4.375 -8.9375 4.375 -8 2 C-4.77786243 -0.14809171 -3.72224599 -0.29386153 0 0 Z M-5 3 C-5.99 4.485 -5.99 4.485 -7 6 C-6.34 6.66 -5.68 7.32 -5 8 C-3.68 8 -2.36 8 -1 8 C-1.33 6.35 -1.66 4.7 -2 3 C-2.99 3 -3.98 3 -5 3 Z " fill="#060100" transform="translate(219,288)"/>
<path d="M0 0 C1.125 6.75 1.125 6.75 0 9 C-1.8125 9.8125 -1.8125 9.8125 -4 10 C-6.25 8.5625 -6.25 8.5625 -8 7 C-7.67 4.69 -7.34 2.38 -7 0 C-3.98968256 -0.93423645 -3.13349732 -1.04449911 0 0 Z M-5 2 C-5.33 2.66 -5.66 3.32 -6 4 C-4.35 4 -2.7 4 -1 4 C-1.33 3.34 -1.66 2.68 -2 2 C-2.99 2 -3.98 2 -5 2 Z M-5 6 C-1 7 -1 7 -1 7 Z " fill="#050100" transform="translate(247,289)"/>
<path d="M0 0 C0.99 0.33 1.98 0.66 3 1 C3.3125 3.8125 3.3125 3.8125 3 7 C1.0625 9 1.0625 9 -2 10 C-5.12980866 9.72899789 -8.06984927 9.14421175 -11 8 C-11.33 7.34 -11.66 6.68 -12 6 C-11.38511719 5.98582031 -10.77023437 5.97164063 -10.13671875 5.95703125 C-7.66500527 5.81117256 -5.40322852 5.60506817 -3 5 C-0.8613923 2.61012067 -0.8613923 2.61012067 0 0 Z " fill="#0B0809" transform="translate(340,282)"/>
<path d="M0 0 C1.66666667 1.66666667 3.33333333 3.33333333 5 5 C5.99 3.35 6.98 1.7 8 0 C8.66 0.66 9.32 1.32 10 2 C9.29379845 3.65581725 8.55912762 5.29951386 7.8125 6.9375 C7.40644531 7.85402344 7.00039063 8.77054687 6.58203125 9.71484375 C5 12 5 12 2.32421875 12.81640625 C1.55722656 12.87699219 0.79023438 12.93757813 0 13 C0 12.34 0 11.68 0 11 C0.99 11 1.98 11 3 11 C2.505 9.9275 2.01 8.855 1.5 7.75 C0.11346089 4.74583192 0 3.54065105 0 0 Z " fill="#060300" transform="translate(264,288)"/>
<path d="M0 0 C3.02213254 0.08755429 6.04152681 0.19451063 9.0625 0.3125 C9.91005859 0.33505859 10.75761719 0.35761719 11.63085938 0.38085938 C17.11392914 0.61373106 21.09537592 1.51774114 26 4 C26 4.33 26 4.66 26 5 C23.3122562 4.85790331 20.62486698 4.7114277 17.9375 4.5625 C17.18533203 4.52318359 16.43316406 4.48386719 15.65820312 4.44335938 C11.05301259 4.18419281 6.55633276 3.7200579 2 3 C2 2.34 2 1.68 2 1 C1.34 0.67 0.68 0.34 0 0 Z " fill="#181611" transform="translate(261,98)"/>
<path d="M0 0 C-8.92760027 4.19050625 -17.24804554 4.13198134 -27 4 C-27 3.67 -27 3.34 -27 3 C-23.06451278 2.30062527 -19.12636969 1.61754417 -15.1875 0.9375 C-14.06794922 0.73833984 -12.94839844 0.53917969 -11.79492188 0.33398438 C-10.18520508 0.05844727 -10.18520508 0.05844727 -8.54296875 -0.22265625 C-7.55321045 -0.39547119 -6.56345215 -0.56828613 -5.54370117 -0.74633789 C-3 -1 -3 -1 0 0 Z " fill="#0D0B06" transform="translate(291,408)"/>
<path d="M0 0 C0.33 1.32 0.66 2.64 1 4 C2.65 4.33 4.3 4.66 6 5 C6 5.33 6 5.66 6 6 C1.71 6.66 -2.58 7.32 -7 8 C-6.34 7.67 -5.68 7.34 -5 7 C-5.33 5.35 -5.66 3.7 -6 2 C-4.02 1.34 -2.04 0.68 0 0 Z " fill="#181411" transform="translate(223,110)"/>
<path d="M0 0 C2.3125 0.8125 2.3125 0.8125 4 2 C4 2.66 4 3.32 4 4 C2.68 4.33 1.36 4.66 0 5 C0 5.66 0 6.32 0 7 C-0.66 7 -1.32 7 -2 7 C-2.33 7.66 -2.66 8.32 -3 9 C-3.33 8.01 -3.66 7.02 -4 6 C-3.67 5.34 -3.34 4.68 -3 4 C-3.66 3.67 -4.32 3.34 -5 3 C-2.75 1.375 -2.75 1.375 0 0 Z " fill="#141013" transform="translate(334,299)"/>
<path d="M0 0 C1.2065625 0.0309375 1.2065625 0.0309375 2.4375 0.0625 C2.4375 1.0525 2.4375 2.0425 2.4375 3.0625 C1.4475 3.0625 0.4575 3.0625 -0.5625 3.0625 C-0.5625 5.3725 -0.5625 7.6825 -0.5625 10.0625 C-1.5525 10.0625 -2.5425 10.0625 -3.5625 10.0625 C-3.58939216 8.58343108 -3.60884621 7.10422517 -3.625 5.625 C-3.63660156 4.80128906 -3.64820313 3.97757812 -3.66015625 3.12890625 C-3.51340586 0.02366796 -3.12550237 0.07623177 0 0 Z " fill="#020100" transform="translate(256.5625,287.9375)"/>
<path d="M0 0 C2.72923388 -0.0270817 5.45819637 -0.04687847 8.1875 -0.0625 C8.95642578 -0.07087891 9.72535156 -0.07925781 10.51757812 -0.08789062 C14.48526789 -0.10491934 18.12571234 0.01395885 22 1 C22 1.33 22 1.66 22 2 C18.32612505 2.85298376 14.9552607 3.10789471 11.1875 3.0625 C10.21167969 3.05347656 9.23585937 3.04445313 8.23046875 3.03515625 C7.12638672 3.01775391 7.12638672 3.01775391 6 3 C6 2.67 6 2.34 6 2 C3.03 1.505 3.03 1.505 0 1 C0 0.67 0 0.34 0 0 Z " fill="#1F1A19" transform="translate(242,400)"/>
<path d="M0 0 C4.62 1.65 9.24 3.3 14 5 C13.67 5.66 13.34 6.32 13 7 C7.72250715 6.46148032 3.74354436 5.22656164 -1 3 C-0.67 2.01 -0.34 1.02 0 0 Z " fill="#19160F" transform="translate(296,104)"/>
<path d="M0 0 C0 0.33 0 0.66 0 1 C-5.28 1 -10.56 1 -16 1 C-16.33 1.66 -16.66 2.32 -17 3 C-19.31 2.34 -21.62 1.68 -24 1 C-24 0.67 -24 0.34 -24 0 C-15.84317822 -1.3883952 -8.17413104 -1.18896451 0 0 Z " fill="#171614" transform="translate(256,98)"/>
<path d="M0 0 C-0.99 0.66 -1.98 1.32 -3 2 C-1.68 2.33 -0.36 2.66 1 3 C0.01 3.33 -0.98 3.66 -2 4 C-1.34 4.66 -0.68 5.32 0 6 C-1.65 6.33 -3.3 6.66 -5 7 C-5.433125 6.0409375 -5.433125 6.0409375 -5.875 5.0625 C-6.82823451 2.84793921 -6.82823451 2.84793921 -9 2 C-3.375 -1.125 -3.375 -1.125 0 0 Z " fill="#110D0C" transform="translate(221,145)"/>
<path d="M0 0 C4.62 0 9.24 0 14 0 C14 0.99 14 1.98 14 3 C9.38 3 4.76 3 0 3 C0 2.01 0 1.02 0 0 Z " fill="#0E0701" transform="translate(387,186)"/>
<path d="M0 0 C-1 2 -1 2 -2.9609375 2.8515625 C-4.15589844 3.23441406 -4.15589844 3.23441406 -5.375 3.625 C-6.56222656 4.01558594 -6.56222656 4.01558594 -7.7734375 4.4140625 C-10 5 -10 5 -13 5 C-13 4.34 -13 3.68 -13 3 C-8.44573816 0.33409063 -5.26053037 -0.31563182 0 0 Z " fill="#191710" transform="translate(189,100)"/>
<path d="M0 0 C0.66 0.33 1.32 0.66 2 1 C1.52949219 1.44730469 1.05898437 1.89460937 0.57421875 2.35546875 C-2.89122883 5.72046857 -5.57667077 8.79105976 -8 13 C-8.66 13 -9.32 13 -10 13 C-8.87548273 10.0280615 -7.77706209 7.66559313 -6 5 C-5.34 5 -4.68 5 -4 5 C-4 4.34 -4 3.68 -4 3 C-2 1.375 -2 1.375 0 0 Z " fill="#100D08" transform="translate(138,206)"/>
<path d="M0 0 C3.63 1.98 7.26 3.96 11 6 C11 6.66 11 7.32 11 8 C5.47371099 6.80805531 2.82180842 5.4008703 -1 1 C-0.67 0.67 -0.34 0.34 0 0 Z " fill="#15130B" transform="translate(319,101)"/>
<path d="M0 0 C0 0.66 0 1.32 0 2 C-0.99 2.495 -0.99 2.495 -2 3 C-1.67 3.66 -1.34 4.32 -1 5 C-2.32 5.33 -3.64 5.66 -5 6 C-4.79375 6.61875 -4.5875 7.2375 -4.375 7.875 C-4.25125 8.57625 -4.1275 9.2775 -4 10 C-4.66 10.66 -5.32 11.32 -6 12 C-6.48979592 4.65306122 -6.48979592 4.65306122 -4.125 1.5 C-2 0 -2 0 0 0 Z " fill="#0A0809" transform="translate(259,196)"/>
<path d="M0 0 C3 1 3 1 4 3 C4.99 2.67 5.98 2.34 7 2 C7.66 2.66 8.32 3.32 9 4 C8.67 4.66 8.34 5.32 8 6 C4.625 5.75 4.625 5.75 1 5 C-0.4375 2.9375 -0.4375 2.9375 -1 1 C-0.67 0.67 -0.34 0.34 0 0 Z " fill="#2B2C29" transform="translate(281,91)"/>
<path d="M0 0 C4.29 0 8.58 0 13 0 C13 1.32 13 2.64 13 4 C12.01 3.67 11.02 3.34 10 3 C8.10529184 2.9314505 6.2083166 2.91519628 4.3125 2.9375 C3.31863281 2.94652344 2.32476562 2.95554687 1.30078125 2.96484375 C0.54152344 2.97644531 -0.21773438 2.98804688 -1 3 C-0.67 2.01 -0.34 1.02 0 0 Z " fill="#070400" transform="translate(382,323)"/>
<path d="M0 0 C0.99 0.33 1.98 0.66 3 1 C3 1.66 3 2.32 3 3 C2.34 3 1.68 3 1 3 C1 3.66 1 4.32 1 5 C2.65 5.33 4.3 5.66 6 6 C6 6.66 6 7.32 6 8 C3.61435923 7.42415568 1.33317216 6.77772405 -1 6 C-1.042721 4.33388095 -1.04063832 2.66617115 -1 1 C-0.67 0.67 -0.34 0.34 0 0 Z " fill="#2C2B2B" transform="translate(155,374)"/>
<path d="M0 0 C1.2065625 0.0309375 1.2065625 0.0309375 2.4375 0.0625 C2.4375 0.7225 2.4375 1.3825 2.4375 2.0625 C1.1175 2.0625 -0.2025 2.0625 -1.5625 2.0625 C-0.5725 3.3825 0.4175 4.7025 1.4375 6.0625 C-0.2125 6.3925 -1.8625 6.7225 -3.5625 7.0625 C-3.60504356 5.06295254 -3.60330783 3.06208364 -3.5625 1.0625 C-2.5625 0.0625 -2.5625 0.0625 0 0 Z " fill="#030000" transform="translate(198.5625,284.9375)"/>
<path d="M0 0 C1.98 0.495 1.98 0.495 4 1 C4 2.32 4 3.64 4 5 C2.35 5 0.7 5 -1 5 C-0.67 3.35 -0.34 1.7 0 0 Z " fill="#0D0703" transform="translate(347,282)"/>
<path d="M0 0 C1.95803507 -0.05389087 3.91648909 -0.09274217 5.875 -0.125 C7.51082031 -0.15980469 7.51082031 -0.15980469 9.1796875 -0.1953125 C12 0 12 0 14 2 C13.34 2 12.68 2 12 2 C11.67 2.99 11.34 3.98 11 5 C10.67 4.525625 10.34 4.05125 10 3.5625 C6.90186733 1.14208385 3.87973208 1.31801083 0 1 C0 0.67 0 0.34 0 0 Z " fill="#120D0C" transform="translate(261,109)"/>
<path d="M0 0 C0.66 1.32 1.32 2.64 2 4 C3.32 2.68 4.64 1.36 6 0 C6.66 0.33 7.32 0.66 8 1 C6.02 2.98 4.04 4.96 2 7 C1.01 6.67 0.02 6.34 -1 6 C-1.042721 4.33388095 -1.04063832 2.66617115 -1 1 C-0.67 0.67 -0.34 0.34 0 0 Z " fill="#0F0A0B" transform="translate(202,225)"/>
<path d="M0 0 C0.66 0.33 1.32 0.66 2 1 C1.67 2.32 1.34 3.64 1 5 C0.34 5 -0.32 5 -1 5 C-2.70680947 6.62553283 -4.37660195 8.29115995 -6 10 C-4.6302836 6.00499382 -2.74277578 3.19990508 0 0 Z " fill="#0E0C0A" transform="translate(210,148)"/>
<path d="M0 0 C0 0.66 0 1.32 0 2 C-2.64 2.33 -5.28 2.66 -8 3 C-8.33 2.34 -8.66 1.68 -9 1 C-3.375 -1.125 -3.375 -1.125 0 0 Z " fill="#24221A" transform="translate(208,93)"/>
<path d="M0 0 C2.475 0.99 2.475 0.99 5 2 C4.34 3.65 3.68 5.3 3 7 C2.01 6.67 1.02 6.34 0 6 C0.33 5.67 0.66 5.34 1 5 C0.34 4.67 -0.32 4.34 -1 4 C-0.67 2.68 -0.34 1.36 0 0 Z " fill="#2C2B2C" transform="translate(296,397)"/>
<path d="M0 0 C0.66 0.66 1.32 1.32 2 2 C1.01 3.485 1.01 3.485 0 5 C-3 4 -3 4 -4 3 C-4 3.99 -4 4.98 -4 6 C-4.99 5.67 -5.98 5.34 -7 5 C-6.34 5 -5.68 5 -5 5 C-5 4.01 -5 3.02 -5 2 C-3.35 1.34 -1.7 0.68 0 0 Z " fill="#030100" transform="translate(157,289)"/>
<path d="M0 0 C3.63 0.33 7.26 0.66 11 1 C10.67 1.66 10.34 2.32 10 3 C6.37 3 2.74 3 -1 3 C-0.67 2.01 -0.34 1.02 0 0 Z " fill="#0E0902" transform="translate(101,186)"/>
<path d="M0 0 C1.32 0.66 2.64 1.32 4 2 C2.02 3.32 0.04 4.64 -2 6 C-2.33 4.68 -2.66 3.36 -3 2 C-2.01 1.34 -1.02 0.68 0 0 Z " fill="#0E0C09" transform="translate(164,140)"/>
<path d="M0 0 C1.32 0.66 2.64 1.32 4 2 C3.67 2.99 3.34 3.98 3 5 C1.68 4.67 0.36 4.34 -1 4 C-0.67 2.68 -0.34 1.36 0 0 Z " fill="#040100" transform="translate(323,294)"/>
<path d="M0 0 C1.50433594 0.01353516 1.50433594 0.01353516 3.0390625 0.02734375 C3.80992187 0.03894531 4.58078125 0.05054687 5.375 0.0625 C5.375 0.3925 5.375 0.7225 5.375 1.0625 C3.77450296 1.45286513 2.16937629 1.82428619 0.5625 2.1875 C-0.33082031 2.39632812 -1.22414062 2.60515625 -2.14453125 2.8203125 C-4.625 3.0625 -4.625 3.0625 -7.625 1.0625 C-4.98041621 -0.25979189 -2.94738699 -0.03427194 0 0 Z " fill="#1D1912" transform="translate(232.625,108.9375)"/>
<path d="M0 0 C2.475 0.99 2.475 0.99 5 2 C5 2.66 5 3.32 5 4 C5.66 4.33 6.32 4.66 7 5 C1.25 4.25 1.25 4.25 -1 2 C-0.67 1.34 -0.34 0.68 0 0 Z " fill="#1E1C18" transform="translate(296,104)"/>
<path d="M0 0 C0 1.65 0 3.3 0 5 C-2.375 4.6875 -2.375 4.6875 -5 4 C-5.66 3.01 -6.32 2.02 -7 1 C-2.25 0 -2.25 0 0 0 Z " fill="#24201C" transform="translate(224,88)"/>
<path d="M0 0 C2.97 0 5.94 0 9 0 C7.515 1.485 7.515 1.485 6 3 C4.02 2.34 2.04 1.68 0 1 C0 0.67 0 0.34 0 0 Z " fill="#1E191F" transform="translate(328,288)"/>
<path d="M0 0 C0.66 0.33 1.32 0.66 2 1 C2 1.99 2 2.98 2 4 C0.02 4 -1.96 4 -4 4 C-2.68 2.68 -1.36 1.36 0 0 Z " fill="#1F1B18" transform="translate(162,111)"/>
<path d="M0 0 C1.98 0.99 3.96 1.98 6 3 C6 3.33 6 3.66 6 4 C3.125 4.125 3.125 4.125 0 4 C-0.66 3.34 -1.32 2.68 -2 2 C-1.34 2 -0.68 2 0 2 C0 1.34 0 0.68 0 0 Z " fill="#211C13" transform="translate(330,107)"/>
<path d="M0 0 C2.97 0.495 2.97 0.495 6 1 C6 1.99 6 2.98 6 4 C3.83125748 3.49396008 2.00032373 3.00016187 0 2 C0 1.34 0 0.68 0 0 Z " fill="#19170D" transform="translate(311,99)"/>
<path d="M0 0 C0.99 0.33 1.98 0.66 3 1 C2.67 1.66 2.34 2.32 2 3 C1.01 2.67 0.02 2.34 -1 2 C-0.67 1.34 -0.34 0.68 0 0 Z " fill="#090501" transform="translate(341,274)"/>
<path d="M0 0 C0.66 0 1.32 0 2 0 C1.67 0.99 1.34 1.98 1 3 C0.34 2.34 -0.32 1.68 -1 1 C-0.67 0.67 -0.34 0.34 0 0 Z " fill="#040100" transform="translate(316,280)"/>
<path d="" fill="#140000" transform="translate(0,0)"/>
<path d="" fill="#000000" transform="translate(0,0)"/>
</svg>
